<svg width="400" height="400" viewBox="0 0 400 400" xmlns="http://www.w3.org/2000/svg">
  <!-- Background -->
  <rect width="400" height="400" fill="#000000"/>
  
  <!-- Face base -->
  <ellipse cx="200" cy="190" rx="85" ry="110" fill="#333333" stroke="#ffffff" stroke-width="3"/>
  
  <!-- Forehead/Hair area -->
  <path d="M 115 140 Q 200 110 285 140 Q 280 160 200 150 Q 120 160 115 140" fill="#666666" stroke="#ffffff" stroke-width="2"/>
  
  <!-- Hair details -->
  <path d="M 130 135 Q 150 125 170 130" stroke="#ffffff" stroke-width="2" fill="none"/>
  <path d="M 230 130 Q 250 125 270 135" stroke="#ffffff" stroke-width="2" fill="none"/>
  
  <!-- Eyes -->
  <ellipse cx="170" cy="170" rx="12" ry="8" fill="#ffffff"/>
  <ellipse cx="230" cy="170" rx="12" ry="8" fill="#ffffff"/>
  <circle cx="170" cy="170" r="6" fill="#000000"/>
  <circle cx="230" cy="170" r="6" fill="#000000"/>
  <circle cx="172" cy="168" r="2" fill="#ffffff"/>
  <circle cx="232" cy="168" r="2" fill="#ffffff"/>
  
  <!-- Eyebrows -->
  <path d="M 155 155 Q 170 150 185 155" stroke="#ffffff" stroke-width="3" fill="none"/>
  <path d="M 215 155 Q 230 150 245 155" stroke="#ffffff" stroke-width="3" fill="none"/>
  
  <!-- Nose -->
  <path d="M 200 180 L 200 200 L 195 205 L 200 205 L 205 205" stroke="#ffffff" stroke-width="2" fill="none"/>
  <ellipse cx="195" cy="202" rx="3" ry="2" fill="none" stroke="#ffffff" stroke-width="1"/>
  <ellipse cx="205" cy="202" rx="3" ry="2" fill="none" stroke="#ffffff" stroke-width="1"/>
  
  <!-- Mouth -->
  <path d="M 175 225 Q 200 240 225 225" stroke="#ffffff" stroke-width="3" fill="none"/>
  <path d="M 185 235 Q 200 245 215 235" stroke="#ffffff" stroke-width="2" fill="none"/>
  
  <!-- Chin/Jaw line -->
  <path d="M 140 240 Q 200 260 260 240" stroke="#ffffff" stroke-width="2" fill="none"/>
  
  <!-- Neck -->
  <rect x="175" y="300" width="50" height="50" fill="#333333" stroke="#ffffff" stroke-width="3"/>
  
  <!-- Shoulders/Shirt -->
  <path d="M 100 350 L 175 350 L 225 350 L 300 350 L 300 400 L 100 400 Z" fill="#666666" stroke="#ffffff" stroke-width="3"/>
  
  <!-- Shirt collar -->
  <path d="M 175 350 L 185 370 L 200 375 L 215 370 L 225 350" fill="none" stroke="#ffffff" stroke-width="2"/>
  
  <!-- Facial shading for depth -->
  <path d="M 140 180 Q 160 190 140 210" stroke="#ffffff" stroke-width="1" opacity="0.5" fill="none"/>
  <path d="M 260 180 Q 240 190 260 210" stroke="#ffffff" stroke-width="1" opacity="0.5" fill="none"/>
  
  <!-- Brutalist geometric elements -->
  <rect x="30" y="30" width="25" height="25" fill="#ffffff"/>
  <rect x="345" y="30" width="25" height="25" fill="#ffffff"/>
  <rect x="30" y="345" width="25" height="25" fill="#ffffff"/>
  <rect x="345" y="345" width="25" height="25" fill="#ffffff"/>
  
  <!-- Additional brutalist elements -->
  <rect x="80" y="80" width="15" height="15" fill="#ffff00"/>
  <rect x="305" y="80" width="15" height="15" fill="#ffff00"/>
  <rect x="80" y="305" width="15" height="15" fill="#ffff00"/>
  <rect x="305" y="305" width="15" height="15" fill="#ffff00"/>
  
  <!-- Grid lines for brutalist aesthetic -->
  <line x1="0" y1="100" x2="400" y2="100" stroke="#ffffff" stroke-width="1" opacity="0.2"/>
  <line x1="0" y1="200" x2="400" y2="200" stroke="#ffffff" stroke-width="1" opacity="0.2"/>
  <line x1="0" y1="300" x2="400" y2="300" stroke="#ffffff" stroke-width="1" opacity="0.2"/>
  <line x1="100" y1="0" x2="100" y2="400" stroke="#ffffff" stroke-width="1" opacity="0.2"/>
  <line x1="200" y1="0" x2="200" y2="400" stroke="#ffffff" stroke-width="1" opacity="0.2"/>
  <line x1="300" y1="0" x2="300" y2="400" stroke="#ffffff" stroke-width="1" opacity="0.2"/>
  
  <!-- Diagonal brutalist lines -->
  <line x1="0" y1="0" x2="50" y2="50" stroke="#ffffff" stroke-width="2" opacity="0.3"/>
  <line x1="350" y1="0" x2="400" y2="50" stroke="#ffffff" stroke-width="2" opacity="0.3"/>
  <line x1="0" y1="350" x2="50" y2="400" stroke="#ffffff" stroke-width="2" opacity="0.3"/>
  <line x1="350" y1="350" x2="400" y2="400" stroke="#ffffff" stroke-width="2" opacity="0.3"/>
</svg>