<svg width="200" height="240" xmlns="http://www.w3.org/2000/svg">
  <!-- Face outline -->
  <ellipse cx="100" cy="120" rx="80" ry="100" fill="#666" stroke="#999" stroke-width="2"/>
  
  <!-- Eyes -->
  <circle cx="75" cy="100" r="8" fill="#333"/>
  <circle cx="125" cy="100" r="8" fill="#333"/>
  <circle cx="77" cy="98" r="3" fill="#fff"/>
  <circle cx="127" cy="98" r="3" fill="#fff"/>
  
  <!-- Nose -->
  <path d="M100 110 L95 125 L100 130 L105 125 Z" fill="#555"/>
  
  <!-- Mouth -->
  <path d="M85 150 Q100 165 115 150" stroke="#333" stroke-width="3" fill="none"/>
  
  <!-- Hair -->
  <path d="M30 80 Q50 20 100 30 Q150 20 170 80 Q160 60 140 50 Q120 40 100 45 Q80 40 60 50 Q40 60 30 80" fill="#222"/>
  
  <!-- Eyebrows -->
  <path d="M65 85 Q75 80 85 85" stroke="#333" stroke-width="3" fill="none"/>
  <path d="M115 85 Q125 80 135 85" stroke="#333" stroke-width="3" fill="none"/>
  
  <!-- Neck -->
  <rect x="85" y="210" width="30" height="30" fill="#666"/>
  
  <!-- Shoulders -->
  <path d="M50 240 Q85 220 100 225 Q115 220 150 240 L150 240 L50 240" fill="#444"/>
</svg>